# xmcd CD database file
#
# Track frame offsets:
#	150
#	18172
#	54947
#
# Disc length: 971 seconds
#
# Revision: 0
# Processed by: cddbd v1.5.1PL0 Copyright (c) Steve Scherf et al.
# Submitted via: CDex 1.51
#
DISCID=1603c903
DTITLE=TETSUYA KOMURO - REMEMBER ME？
DYEAR=1900
DGENRE=JPop
TTITLE0=REMEMBER ME？ ORIGINAL MIX
TTITLE1=REMEMBER ME？ ASIAN SPICES MIX
TTITLE2=REMEMBER ME？ ORIGINAL KARAOKE MIX
EXTD=
EXTT0=
EXTT1=
EXTT2=
PLAYORDER=
